<?xml version="1.0" standalone="no"?>
<!DOCTYPE svg PUBLIC "-//W3C//DTD SVG 20010904//EN"
 "http://www.w3.org/TR/2001/REC-SVG-20010904/DTD/svg10.dtd">
<svg version="1.0" xmlns="http://www.w3.org/2000/svg"
 width="423.000000pt" height="423.000000pt" viewBox="0 0 423.000000 423.000000"
 preserveAspectRatio="xMidYMid meet">
<metadata>
Created by potrace 1.11, written by Peter Selinger 2001-2013
</metadata>
<g transform="translate(0.000000,423.000000) scale(0.100000,-0.100000)"
fill="#000000" stroke="none">
<path d="M2236 3814 c-174 -31 -333 -119 -471 -259 -104 -106 -170 -195 -288
-390 l-85 -140 -56 -3 c-125 -7 -304 78 -558 264 -48 35 -90 64 -93 64 -3 0
-4 -15 -1 -32 3 -18 17 -116 31 -218 49 -352 95 -574 152 -725 61 -165 127
-270 374 -600 305 -408 419 -564 419 -575 0 -15 -56 -124 -97 -190 -19 -30
-58 -79 -86 -109 -96 -99 -183 -141 -325 -156 -91 -10 -95 -8 187 -90 639
-186 1027 -112 1406 270 370 371 563 874 745 1940 17 99 33 188 36 198 3 10
69 49 162 96 163 83 211 116 194 133 -6 6 -63 9 -141 7 -72 -2 -131 -2 -131 1
0 3 20 64 45 135 45 129 54 178 35 190 -5 3 -45 -28 -89 -69 -44 -41 -89 -77
-100 -81 -13 -4 -63 18 -160 70 -270 146 -507 239 -685 270 -109 19 -313 18
-420 -1z"/>
</g>
</svg>
